<svg width="154" height="51" viewBox="0 0 154 51" fill="none" xmlns="http://www.w3.org/2000/svg">
<path d="M114.767 39.1143H144.743V11.1143C144.743 10.0534 144.321 9.03598 143.571 8.28583C142.821 7.53569 141.804 7.11426 140.743 7.11426H114.743C112.331 7.11426 108.743 8.71226 108.743 13.1143V41.1143C108.743 45.5163 112.331 47.1143 114.743 47.1143H144.743V43.1143H114.767C113.843 43.0903 112.743 42.7243 112.743 41.1143C112.743 39.5043 113.843 39.1383 114.767 39.1143ZM118.743 15.1143H136.743V19.1143H118.743V15.1143Z" fill="#D90000"/>
<path d="M17.38 28.64L15.88 28.38V27.14H18.9C19.18 27.14 19.6133 27.1267 20.2 27.1C20.9733 27.0467 21.6733 27.02 22.3 27.02C23.6867 27.02 24.78 27.1933 25.58 27.54C26.3933 27.8733 26.9667 28.36 27.3 29C27.6467 29.6267 27.82 30.4267 27.82 31.4C27.82 33.08 27.2933 34.3867 26.24 35.32C25.2 36.2533 23.7533 36.72 21.9 36.72C21.1667 36.72 20.64 36.7 20.32 36.66V40.6L23 40.8V42H15.8V40.8L17.38 40.6V28.64ZM20.3 35.38C20.6067 35.4467 21.1267 35.48 21.86 35.48C22.7533 35.48 23.4667 35.1733 24 34.56C24.5467 33.9333 24.82 32.9 24.82 31.46C24.82 30.34 24.5733 29.5267 24.08 29.02C23.6 28.5 22.86 28.24 21.86 28.24C21.4867 28.24 21.1 28.2667 20.7 28.32C20.5133 28.3467 20.38 28.36 20.3 28.36V35.38ZM38.1427 42.2C37.7027 42.2 37.3827 42.1067 37.1827 41.92C36.9827 41.7333 36.8827 41.4533 36.8827 41.08V40.54C36.5227 40.98 36.016 41.3733 35.3627 41.72C34.7093 42.0533 34.056 42.22 33.4027 42.22C32.1227 42.22 31.2093 41.8933 30.6627 41.24C30.116 40.5733 29.8427 39.48 29.8427 37.96V32.32L28.8427 32.04V30.9L32.2427 30.64H32.2627L32.6627 30.92V37.96C32.6627 38.9333 32.7827 39.6133 33.0227 40C33.2627 40.3867 33.7093 40.58 34.3627 40.58C35.1493 40.58 35.8827 40.2733 36.5627 39.66V32.32L35.2227 32.02V30.9L38.8427 30.64H38.8827L39.3627 30.92V40.76H40.4827L40.4627 41.9C40.4093 41.9133 40.1627 41.9667 39.7227 42.06C39.2827 42.1533 38.756 42.2 38.1427 42.2ZM32.4827 28.28L35.8627 24.12L37.6227 25.66C37.3027 26.1933 36.676 26.8467 35.7427 27.62C34.8227 28.3933 34.076 28.9 33.5027 29.14L32.4827 28.28ZM40.9961 26.04L44.6561 25.6H44.6961L45.2561 25.98V31.88C45.6161 31.52 46.0561 31.22 46.5761 30.98C47.1094 30.7267 47.6828 30.6 48.2961 30.6C49.5761 30.6 50.6161 31.0533 51.4161 31.96C52.2294 32.8533 52.6361 34.2267 52.6361 36.08C52.6361 37.2267 52.3961 38.2667 51.9161 39.2C51.4361 40.1333 50.7428 40.8733 49.8361 41.42C48.9428 41.9533 47.9028 42.22 46.7161 42.22C45.6628 42.22 44.7494 42.1333 43.9761 41.96C43.2028 41.7733 42.7094 41.6067 42.4961 41.46V27.32L40.9961 27.08V26.04ZM47.2361 32.36C46.8361 32.36 46.4561 32.4533 46.0961 32.64C45.7494 32.8133 45.4694 33.0133 45.2561 33.24V40.54C45.3361 40.6867 45.5228 40.8067 45.8161 40.9C46.1094 40.9933 46.4428 41.04 46.8161 41.04C47.6694 41.04 48.3494 40.6467 48.8561 39.86C49.3761 39.06 49.6361 37.88 49.6361 36.32C49.6361 34.9733 49.4161 33.98 48.9761 33.34C48.5361 32.6867 47.9561 32.36 47.2361 32.36ZM55.4194 27.38L53.9394 27.12V26.04L57.6394 25.6H57.6794L58.2194 25.98V40.64L59.6794 40.8V42H54.0194V40.8L55.4194 40.62V27.38ZM63.4363 29.06C62.9563 29.06 62.5763 28.92 62.2963 28.64C62.0163 28.36 61.8763 28 61.8763 27.56C61.8763 27.0533 62.0363 26.6333 62.3563 26.3C62.6763 25.9667 63.1029 25.8 63.6363 25.8C64.1696 25.8 64.5763 25.9467 64.8563 26.24C65.1363 26.52 65.2763 26.8733 65.2763 27.3C65.2763 27.8333 65.1163 28.26 64.7963 28.58C64.4763 28.9 64.0296 29.06 63.4563 29.06H63.4363ZM62.3763 32.78L60.9563 32.4V31.06L64.6163 30.62H64.6563L65.2163 31.02V40.64L66.5563 40.8V42H60.9763V40.8L62.3763 40.62V32.78ZM67.7298 36.5C67.7298 35.3533 67.9565 34.3333 68.4098 33.44C68.8765 32.5467 69.5365 31.8533 70.3898 31.36C71.2565 30.8533 72.2632 30.6 73.4098 30.6C73.9432 30.6 74.4032 30.64 74.7898 30.72C75.1765 30.8 75.6098 30.9067 76.0898 31.04L76.6698 31.2L76.5498 34.62H74.8098L74.3098 32.42C74.2298 32.0733 73.8365 31.9 73.1298 31.9C72.3832 31.9 71.7965 32.2267 71.3698 32.88C70.9565 33.5333 70.7432 34.5533 70.7298 35.94C70.7298 37.4067 70.9832 38.5333 71.4898 39.32C71.9965 40.0933 72.6698 40.48 73.5098 40.48C74.5232 40.48 75.4565 40.2067 76.3098 39.66L76.7698 40.7C76.4232 41.0733 75.8898 41.42 75.1698 41.74C74.4632 42.06 73.6965 42.22 72.8698 42.22C71.1632 42.22 69.8765 41.6933 69.0098 40.64C68.1565 39.5867 67.7298 38.2067 67.7298 36.5ZM78.1409 38.88C78.1409 37.6667 78.7476 36.7533 79.9609 36.14C81.1876 35.5267 82.7676 35.2133 84.7009 35.2V34.74C84.7009 34.1933 84.6409 33.7667 84.5209 33.46C84.4143 33.1533 84.2076 32.9267 83.9009 32.78C83.6076 32.62 83.1743 32.54 82.6009 32.54C81.9476 32.54 81.3609 32.6267 80.8409 32.8C80.3209 32.96 79.7809 33.1733 79.2209 33.44L78.6009 32.16C78.8009 31.9867 79.1343 31.78 79.6009 31.54C80.0809 31.3 80.6476 31.0933 81.3009 30.92C81.9543 30.7333 82.6276 30.64 83.3209 30.64C84.3476 30.64 85.1476 30.7733 85.7209 31.04C86.3076 31.3067 86.7276 31.7333 86.9809 32.32C87.2343 32.9067 87.3609 33.6933 87.3609 34.68V40.8H88.4409V41.92C88.1743 41.9867 87.7943 42.0533 87.3009 42.12C86.8076 42.1867 86.3743 42.22 86.0009 42.22C85.5476 42.22 85.2409 42.1533 85.0809 42.02C84.9343 41.8867 84.8609 41.6133 84.8609 41.2V40.66C84.5009 41.06 84.0343 41.42 83.4609 41.74C82.8876 42.06 82.2409 42.22 81.5209 42.22C80.9076 42.22 80.3409 42.0933 79.8209 41.84C79.3143 41.5733 78.9076 41.1933 78.6009 40.7C78.2943 40.1933 78.1409 39.5867 78.1409 38.88ZM82.8009 40.56C83.0809 40.56 83.4009 40.48 83.7609 40.32C84.1209 40.1467 84.4343 39.94 84.7009 39.7V36.42C83.5009 36.42 82.6009 36.6267 82.0009 37.04C81.4143 37.44 81.1209 37.96 81.1209 38.6C81.1209 39.24 81.2676 39.7267 81.5609 40.06C81.8676 40.3933 82.2809 40.56 82.8009 40.56Z" fill="#D90000"/>
<path d="M11.7 17.8C11.62 18.0133 11.54 18.26 11.46 18.54C11.38 18.82 11.2933 19.12 11.2 19.44C11.1333 19.6933 11.0467 20.06 10.94 20.54C10.8333 21.0067 10.74 21.4933 10.66 22C9.98 21.9733 9.21333 21.96 8.36 21.96C7.50667 21.9467 6.74667 21.94 6.08 21.94C5.78667 21.94 5.40667 21.94 4.94 21.94C4.48667 21.94 3.99333 21.9467 3.46 21.96C2.92667 21.96 2.38667 21.9667 1.84 21.98C1.29333 21.98 0.78 21.9867 0.3 22L0.4 21.6C0.853333 21.5733 1.20667 21.52 1.46 21.44C1.71333 21.36 1.90667 21.2 2.04 20.96C2.18667 20.72 2.32667 20.36 2.46 19.88L5.12 9.96C5.25333 9.46667 5.30667 9.10667 5.28 8.88C5.26667 8.64 5.15333 8.48 4.94 8.4C4.74 8.30667 4.41333 8.25333 3.96 8.24L4.06 7.84C4.34 7.85333 4.70667 7.86667 5.16 7.88C5.61333 7.89333 6.1 7.9 6.62 7.9C7.08667 7.9 7.54667 7.89333 8 7.88C8.46667 7.86667 8.85333 7.85333 9.16 7.84L9.06 8.24C8.60667 8.25333 8.25333 8.30667 8 8.4C7.74667 8.48 7.54667 8.64 7.4 8.88C7.25333 9.10667 7.11333 9.46667 6.98 9.96L4.32 19.88C4.18667 20.36 4.12667 20.72 4.14 20.96C4.16667 21.2 4.28667 21.36 4.5 21.44C4.71333 21.5067 5.04667 21.54 5.5 21.54H6.96C7.8 21.54 8.46667 21.42 8.96 21.18C9.46667 20.94 9.88667 20.5467 10.22 20C10.5667 19.4533 10.9067 18.72 11.24 17.8H11.7ZM16.4988 8.08C16.5654 7.73333 16.7388 7.43333 17.0188 7.18C17.3121 6.92667 17.6254 6.8 17.9588 6.8C18.3054 6.8 18.5721 6.92667 18.7588 7.18C18.9588 7.43333 19.0254 7.73333 18.9588 8.08C18.8921 8.42667 18.7121 8.72667 18.4188 8.98C18.1388 9.23333 17.8254 9.36 17.4788 9.36C17.1454 9.36 16.8788 9.23333 16.6788 8.98C16.4921 8.72667 16.4321 8.42667 16.4988 8.08ZM15.8788 13.42C16.1588 12.5933 16.0654 12.18 15.5988 12.18C15.2921 12.18 15.0188 12.3467 14.7788 12.68C14.5388 13.0133 14.2854 13.5267 14.0188 14.22L13.7388 14.96H13.3588L13.8788 13.5C14.0788 12.94 14.3188 12.5133 14.5988 12.22C14.8788 11.9267 15.1721 11.7267 15.4788 11.62C15.7988 11.5 16.0921 11.44 16.3588 11.44C16.7854 11.44 17.0988 11.5267 17.2988 11.7C17.4988 11.8733 17.6188 12.1 17.6588 12.38C17.6988 12.66 17.6854 12.9667 17.6188 13.3C17.5521 13.62 17.4654 13.9333 17.3588 14.24L15.2188 20.3C15.0854 20.6867 15.0388 20.9933 15.0788 21.22C15.1321 21.4333 15.2854 21.54 15.5388 21.54C15.8054 21.54 16.0588 21.3933 16.2988 21.1C16.5388 20.8067 16.8054 20.2733 17.0988 19.5L17.3788 18.76H17.7588L17.2388 20.22C17.0521 20.74 16.8254 21.1533 16.5588 21.46C16.2921 21.7533 16.0054 21.96 15.6988 22.08C15.3921 22.2133 15.0854 22.28 14.7788 22.28C14.2054 22.28 13.8188 22.1467 13.6188 21.88C13.4188 21.6133 13.3454 21.2667 13.3988 20.84C13.4521 20.4133 13.5654 19.96 13.7388 19.48L15.8788 13.42ZM26.2539 11.72L26.1939 12.12H19.9739L20.0739 11.72H26.2539ZM21.1739 20.3C21.0539 20.74 21.0806 21.06 21.2539 21.26C21.4406 21.4467 21.6806 21.54 21.9739 21.54C22.2672 21.54 22.5606 21.4133 22.8539 21.16C23.1606 20.9067 23.4606 20.3667 23.7539 19.54L24.0339 18.76H24.4139L23.9939 20.02C23.7006 20.8867 23.3206 21.48 22.8539 21.8C22.4006 22.12 21.8672 22.28 21.2539 22.28C20.7072 22.28 20.2872 22.1667 19.9939 21.94C19.7139 21.7 19.5472 21.3667 19.4939 20.94C19.4406 20.5133 19.4939 20.0267 19.6539 19.48L22.7539 8.68C23.0739 8.66667 23.3872 8.64 23.6939 8.6C24.0139 8.56 24.3006 8.49333 24.5539 8.4L21.1739 20.3ZM27.1527 17.46C27.8993 17.2067 28.5727 16.96 29.1727 16.72C29.786 16.4667 30.2727 16.2 30.6327 15.92C31.1127 15.5333 31.4927 15.0667 31.7727 14.52C32.0527 13.9733 32.1927 13.3733 32.1927 12.72C32.1927 12.3333 32.166 12.0867 32.1127 11.98C32.0593 11.8733 31.9793 11.82 31.8727 11.82C31.5393 11.82 31.1793 11.9667 30.7927 12.26C30.406 12.5533 30.026 12.96 29.6527 13.48C29.2793 13.9867 28.9327 14.5667 28.6127 15.22C28.306 15.8733 28.0593 16.5733 27.8727 17.32C27.686 18.0533 27.5927 18.7867 27.5927 19.52C27.5927 20.2 27.7193 20.6933 27.9727 21C28.226 21.2933 28.5593 21.44 28.9727 21.44C29.4527 21.44 29.9593 21.2933 30.4927 21C31.026 20.7067 31.546 20.1867 32.0527 19.44L32.3727 19.6C32.1193 20.04 31.786 20.4667 31.3727 20.88C30.9593 21.2933 30.4927 21.6333 29.9727 21.9C29.466 22.1533 28.926 22.28 28.3527 22.28C27.8193 22.28 27.3527 22.1733 26.9527 21.96C26.5527 21.7467 26.246 21.4333 26.0327 21.02C25.8193 20.5933 25.7127 20.0733 25.7127 19.46C25.7127 18.8867 25.8193 18.2467 26.0327 17.54C26.246 16.82 26.546 16.1067 26.9327 15.4C27.3327 14.68 27.806 14.02 28.3527 13.42C28.8993 12.82 29.506 12.34 30.1727 11.98C30.8393 11.62 31.5527 11.44 32.3127 11.44C32.726 11.44 33.0727 11.5533 33.3527 11.78C33.646 11.9933 33.7927 12.32 33.7927 12.76C33.7927 13.2933 33.6327 13.7933 33.3127 14.26C33.006 14.7133 32.5927 15.1333 32.0727 15.52C31.566 15.8933 31.0127 16.2267 30.4127 16.52C29.8127 16.8133 29.226 17.0667 28.6527 17.28C28.0793 17.4933 27.5727 17.6667 27.1327 17.8L27.1527 17.46ZM36.4669 22H34.7269L37.1269 13.42C37.2602 12.9667 37.3002 12.6467 37.2469 12.46C37.2069 12.2733 37.0735 12.18 36.8469 12.18C36.5535 12.18 36.2869 12.3333 36.0469 12.64C35.8069 12.9467 35.5535 13.4733 35.2869 14.22L35.0269 14.96H34.6469L35.1469 13.5C35.3469 12.94 35.5802 12.5133 35.8469 12.22C36.1269 11.9267 36.4135 11.7267 36.7069 11.62C37.0135 11.5 37.3002 11.44 37.5669 11.44C37.9669 11.44 38.2469 11.5267 38.4069 11.7C38.5802 11.8733 38.6735 12.1 38.6869 12.38C38.7135 12.66 38.6935 12.9667 38.6269 13.3C38.5735 13.62 38.5069 13.9333 38.4269 14.24L36.4669 22ZM41.6069 11.94C41.3002 11.94 40.9802 12.0867 40.6469 12.38C40.3269 12.66 39.9935 13.0733 39.6469 13.62C39.3135 14.1533 38.9735 14.8 38.6269 15.56C38.2935 16.3067 37.9602 17.14 37.6269 18.06C37.3069 18.98 36.9935 19.9733 36.6869 21.04L37.1869 18.48C37.6269 17.1733 38.0335 16.0733 38.4069 15.18C38.7935 14.2867 39.1735 13.5667 39.5469 13.02C39.9202 12.46 40.3002 12.06 40.6869 11.82C41.0869 11.5667 41.5069 11.44 41.9469 11.44C42.3202 11.44 42.6069 11.5467 42.8069 11.76C43.0202 11.9733 43.1269 12.2467 43.1269 12.58C43.1269 12.8467 43.0602 13.0933 42.9269 13.32C42.7935 13.5333 42.6202 13.7067 42.4069 13.84C42.2069 13.96 41.9802 14.02 41.7269 14.02C41.5002 14.02 41.3069 13.96 41.1469 13.84C41.0002 13.7067 40.9269 13.5267 40.9269 13.3C40.9269 13.0867 40.9669 12.9 41.0469 12.74C41.1269 12.5667 41.2335 12.42 41.3669 12.3C41.5002 12.18 41.6535 12.0867 41.8269 12.02C41.8002 11.9933 41.7669 11.9733 41.7269 11.96C41.7002 11.9467 41.6602 11.94 41.6069 11.94ZM44.8119 21.64C45.1319 21.64 45.4985 21.44 45.9119 21.04C46.3252 20.6267 46.7452 20.0733 47.1719 19.38C47.5985 18.6867 47.9919 17.9 48.3519 17.02C48.7119 16.14 48.9985 15.2267 49.2119 14.28L48.8719 16.44C48.3652 17.8533 47.8585 18.9933 47.3519 19.86C46.8452 20.7133 46.3319 21.3333 45.8119 21.72C45.2919 22.0933 44.7652 22.28 44.2319 22.28C43.6052 22.28 43.1319 22.0533 42.8119 21.6C42.5052 21.1467 42.3519 20.5667 42.3519 19.86C42.3519 19.22 42.4585 18.5267 42.6719 17.78C42.8852 17.02 43.1785 16.2667 43.5519 15.52C43.9385 14.7733 44.3785 14.0933 44.8719 13.48C45.3652 12.8667 45.8985 12.3733 46.4719 12C47.0585 11.6267 47.6519 11.44 48.2519 11.44C48.7185 11.44 49.0719 11.6733 49.3119 12.14C49.5652 12.5933 49.6185 13.2333 49.4719 14.06L49.2519 14.18C49.3452 13.4733 49.2985 12.9067 49.1119 12.48C48.9252 12.04 48.6185 11.82 48.1919 11.82C47.8452 11.82 47.4785 11.9933 47.0919 12.34C46.7185 12.6733 46.3519 13.1333 45.9919 13.72C45.6452 14.2933 45.3252 14.94 45.0319 15.66C44.7519 16.38 44.5252 17.1267 44.3519 17.9C44.1919 18.66 44.1119 19.3933 44.1119 20.1C44.1119 20.6733 44.1719 21.0733 44.2919 21.3C44.4252 21.5267 44.5985 21.64 44.8119 21.64ZM49.8519 11.72C50.1719 11.7067 50.4919 11.68 50.8119 11.64C51.1319 11.6 51.4252 11.5333 51.6919 11.44L49.1919 20.28C49.1652 20.4 49.1252 20.56 49.0719 20.76C49.0319 20.9467 49.0319 21.12 49.0719 21.28C49.1252 21.44 49.2652 21.52 49.4919 21.52C49.7585 21.52 50.0185 21.3733 50.2719 21.08C50.5252 20.7867 50.7785 20.2533 51.0319 19.48L51.2719 18.74H51.6519L51.1519 20.2C50.9652 20.7333 50.7385 21.1533 50.4719 21.46C50.2185 21.7533 49.9519 21.96 49.6719 22.08C49.3919 22.2133 49.1185 22.28 48.8519 22.28C48.3319 22.28 47.9652 22.1067 47.7519 21.76C47.5785 21.4533 47.5319 21.1 47.6119 20.7C47.6919 20.2867 47.7852 19.8733 47.8919 19.46L49.8519 11.72ZM60.1406 11.72L60.0806 12.12H53.8606L53.9606 11.72H60.1406ZM55.0606 20.3C54.9406 20.74 54.9673 21.06 55.1406 21.26C55.3273 21.4467 55.5673 21.54 55.8606 21.54C56.154 21.54 56.4473 21.4133 56.7406 21.16C57.0473 20.9067 57.3473 20.3667 57.6406 19.54L57.9206 18.76H58.3006L57.8806 20.02C57.5873 20.8867 57.2073 21.48 56.7406 21.8C56.2873 22.12 55.754 22.28 55.1406 22.28C54.594 22.28 54.174 22.1667 53.8806 21.94C53.6006 21.7 53.434 21.3667 53.3806 20.94C53.3273 20.5133 53.3806 20.0267 53.5406 19.48L56.6406 8.68C56.9606 8.66667 57.274 8.64 57.5806 8.6C57.9006 8.56 58.1873 8.49333 58.4406 8.4L55.0606 20.3ZM67.2994 15.08C66.8194 16.4133 66.3594 17.54 65.9194 18.46C65.4794 19.38 65.0394 20.12 64.5994 20.68C64.1727 21.24 63.7327 21.6467 63.2794 21.9C62.8394 22.1533 62.3794 22.28 61.8994 22.28C61.3127 22.28 60.886 22.1467 60.6194 21.88C60.3527 21.6133 60.2194 21.2533 60.2194 20.8C60.2194 20.3467 60.3127 19.8333 60.4994 19.26L62.4394 13.42C62.5727 13.02 62.6194 12.7133 62.5794 12.5C62.5394 12.2867 62.386 12.18 62.1194 12.18C61.866 12.18 61.6127 12.32 61.3594 12.6C61.1194 12.88 60.8594 13.42 60.5794 14.22L60.3194 14.96H59.9394L60.4394 13.5C60.6394 12.94 60.8727 12.5133 61.1394 12.22C61.4194 11.9267 61.706 11.7267 61.9994 11.62C62.306 11.5 62.5927 11.44 62.8594 11.44C63.446 11.44 63.8327 11.58 64.0194 11.86C64.2194 12.1267 64.2927 12.4733 64.2394 12.9C64.1994 13.3267 64.0994 13.7733 63.9394 14.24L62.0394 19.96C61.666 21.08 61.8127 21.64 62.4794 21.64C62.7994 21.64 63.1394 21.5 63.4994 21.22C63.8594 20.9267 64.226 20.5133 64.5994 19.98C64.9727 19.4333 65.3394 18.7867 65.6994 18.04C66.0727 17.28 66.426 16.44 66.7594 15.52C67.106 14.5867 67.4194 13.5867 67.6994 12.52L67.2994 15.08ZM67.2394 20.3C67.146 20.66 67.0994 20.96 67.0994 21.2C67.1127 21.4267 67.2527 21.54 67.5194 21.54C67.8127 21.54 68.0794 21.3867 68.3194 21.08C68.5727 20.76 68.826 20.2333 69.0794 19.5L69.3394 18.76H69.7194L69.2194 20.22C69.0327 20.78 68.7994 21.2067 68.5194 21.5C68.2527 21.7933 67.966 21.9933 67.6594 22.1C67.366 22.22 67.0794 22.28 66.7994 22.28C66.586 22.28 66.386 22.2333 66.1994 22.14C66.0127 22.0467 65.8727 21.9133 65.7794 21.74C65.6727 21.5133 65.6327 21.2267 65.6594 20.88C65.6994 20.5333 65.7927 20.0667 65.9394 19.48L67.8994 11.72C68.2327 11.7067 68.5527 11.68 68.8594 11.64C69.1794 11.6 69.466 11.5333 69.7194 11.44L67.2394 20.3ZM73.127 22H71.387L73.787 13.42C73.9204 12.9667 73.9604 12.6467 73.907 12.46C73.867 12.2733 73.7337 12.18 73.507 12.18C73.2137 12.18 72.947 12.3333 72.707 12.64C72.467 12.9467 72.2137 13.4733 71.947 14.22L71.687 14.96H71.307L71.807 13.5C72.007 12.94 72.2404 12.5133 72.507 12.22C72.787 11.9267 73.0737 11.7267 73.367 11.62C73.6737 11.5 73.9604 11.44 74.227 11.44C74.627 11.44 74.907 11.5267 75.067 11.7C75.2404 11.8733 75.3337 12.1 75.347 12.38C75.3737 12.66 75.3537 12.9667 75.287 13.3C75.2337 13.62 75.167 13.9333 75.087 14.24L73.127 22ZM78.267 11.94C77.9604 11.94 77.6404 12.0867 77.307 12.38C76.987 12.66 76.6537 13.0733 76.307 13.62C75.9737 14.1533 75.6337 14.8 75.287 15.56C74.9537 16.3067 74.6204 17.14 74.287 18.06C73.967 18.98 73.6537 19.9733 73.347 21.04L73.847 18.48C74.287 17.1733 74.6937 16.0733 75.067 15.18C75.4537 14.2867 75.8337 13.5667 76.207 13.02C76.5804 12.46 76.9604 12.06 77.347 11.82C77.747 11.5667 78.167 11.44 78.607 11.44C78.9804 11.44 79.267 11.5467 79.467 11.76C79.6804 11.9733 79.787 12.2467 79.787 12.58C79.787 12.8467 79.7204 13.0933 79.587 13.32C79.4537 13.5333 79.2804 13.7067 79.067 13.84C78.867 13.96 78.6404 14.02 78.387 14.02C78.1604 14.02 77.967 13.96 77.807 13.84C77.6604 13.7067 77.587 13.5267 77.587 13.3C77.587 13.0867 77.627 12.9 77.707 12.74C77.787 12.5667 77.8937 12.42 78.027 12.3C78.1604 12.18 78.3137 12.0867 78.487 12.02C78.4604 11.9933 78.427 11.9733 78.387 11.96C78.3604 11.9467 78.3204 11.94 78.267 11.94ZM81.472 21.64C81.792 21.64 82.1587 21.44 82.572 21.04C82.9854 20.6267 83.4054 20.0733 83.832 19.38C84.2587 18.6867 84.652 17.9 85.012 17.02C85.372 16.14 85.6587 15.2267 85.872 14.28L85.532 16.44C85.0254 17.8533 84.5187 18.9933 84.012 19.86C83.5054 20.7133 82.992 21.3333 82.472 21.72C81.952 22.0933 81.4254 22.28 80.892 22.28C80.2654 22.28 79.792 22.0533 79.472 21.6C79.1654 21.1467 79.012 20.5667 79.012 19.86C79.012 19.22 79.1187 18.5267 79.332 17.78C79.5454 17.02 79.8387 16.2667 80.212 15.52C80.5987 14.7733 81.0387 14.0933 81.532 13.48C82.0254 12.8667 82.5587 12.3733 83.132 12C83.7187 11.6267 84.312 11.44 84.912 11.44C85.3787 11.44 85.732 11.6733 85.972 12.14C86.2254 12.5933 86.2787 13.2333 86.132 14.06L85.912 14.18C86.0054 13.4733 85.9587 12.9067 85.772 12.48C85.5854 12.04 85.2787 11.82 84.852 11.82C84.5054 11.82 84.1387 11.9933 83.752 12.34C83.3787 12.6733 83.012 13.1333 82.652 13.72C82.3054 14.2933 81.9854 14.94 81.692 15.66C81.412 16.38 81.1854 17.1267 81.012 17.9C80.852 18.66 80.772 19.3933 80.772 20.1C80.772 20.6733 80.832 21.0733 80.952 21.3C81.0854 21.5267 81.2587 21.64 81.472 21.64ZM86.512 11.72C86.832 11.7067 87.152 11.68 87.472 11.64C87.792 11.6 88.0854 11.5333 88.352 11.44L85.852 20.28C85.8254 20.4 85.7854 20.56 85.732 20.76C85.692 20.9467 85.692 21.12 85.732 21.28C85.7854 21.44 85.9254 21.52 86.152 21.52C86.4187 21.52 86.6787 21.3733 86.932 21.08C87.1854 20.7867 87.4387 20.2533 87.692 19.48L87.932 18.74H88.312L87.812 20.2C87.6254 20.7333 87.3987 21.1533 87.132 21.46C86.8787 21.7533 86.612 21.96 86.332 22.08C86.052 22.2133 85.7787 22.28 85.512 22.28C84.992 22.28 84.6254 22.1067 84.412 21.76C84.2387 21.4533 84.192 21.1 84.272 20.7C84.352 20.2867 84.4454 19.8733 84.552 19.46L86.512 11.72Z" fill="black"/>
<line x1="98.5" y1="47" x2="98.5" y2="3" stroke="black"/>
</svg>
