<svg width="23" height="23" viewBox="0 0 23 23" fill="none" xmlns="http://www.w3.org/2000/svg">
<path d="M16.8791 14.8695C18.271 12.9701 18.8944 10.6152 18.6246 8.27592C18.3548 5.93662 17.2117 3.78545 15.424 2.25277C13.6362 0.720096 11.3357 -0.0810475 8.98265 0.00962017C6.62959 0.100288 4.39753 1.07608 2.73302 2.74178C1.06852 4.40747 0.0943205 6.64023 0.00533662 8.99336C-0.0836473 11.3465 0.719142 13.6464 2.2531 15.4331C3.78705 17.2197 5.93904 18.3613 8.27854 18.6294C10.618 18.8975 12.9725 18.2724 14.8709 16.8791H14.8694C14.9116 16.9366 14.9586 16.9918 15.0103 17.0445L20.5447 22.5788C20.8142 22.8486 21.1799 23.0002 21.5612 23.0003C21.9425 23.0004 22.3083 22.8491 22.578 22.5796C22.8478 22.31 22.9994 21.9444 22.9995 21.563C22.9997 21.1817 22.8483 20.8159 22.5788 20.5462L17.0444 15.0118C16.993 14.9598 16.9378 14.9132 16.8791 14.8695ZM17.2499 9.34377C17.2499 10.382 17.0454 11.4101 16.6481 12.3694C16.2508 13.3286 15.6684 14.2002 14.9343 14.9343C14.2001 15.6685 13.3285 16.2509 12.3693 16.6482C11.4101 17.0455 10.382 17.25 9.3437 17.25C8.30543 17.25 7.27734 17.0455 6.31811 16.6482C5.35888 16.2509 4.4873 15.6685 3.75313 14.9343C3.01897 14.2002 2.4366 13.3286 2.03928 12.3694C1.64195 11.4101 1.43745 10.382 1.43745 9.34377C1.43745 7.2469 2.27043 5.23592 3.75314 3.75321C5.23584 2.2705 7.24683 1.43752 9.3437 1.43752C11.4406 1.43752 13.4516 2.2705 14.9343 3.75321C16.417 5.23592 17.2499 7.2469 17.2499 9.34377Z" fill="#DC2626"/>
</svg>
